<?xml version="1.0" encoding="UTF-8"?><svg id="Layer_1" xmlns="http://www.w3.org/2000/svg" viewBox="0 0 223.99 182.46"><defs><style>.cls-1{fill:#79797a;}.cls-1,.cls-2,.cls-3,.cls-4,.cls-5,.cls-6{stroke:#fff;stroke-miterlimit:10;stroke-width:.15px;}.cls-2{fill:#b3b3b3;}.cls-3{fill:#959595;}.cls-4{fill:#4f4f4f;}.cls-5{fill:#515050;}.cls-6{fill:#8e8e8e;}</style></defs><path class="cls-1" d="M188.73,111.35l-101.54,70.76-22.34-113.21,123.89,42.46Z"/><path class="cls-6" d="M9.23,110.36l55.61-41.46,22.34,113.21L9.23,110.36Z"/><polygon class="cls-3" points="188.73 111.35 145.78 .13 64.84 68.9 188.73 111.35"/><path class="cls-2" d="M64.84,68.9L42.25,13.78,145.78,.13,64.84,68.9Z"/><polygon class="cls-2" points="9.23 110.36 42.25 13.78 64.84 68.9 9.23 110.36"/><polygon class="cls-5" points="145.78 .13 182.53 67.41 188.73 111.35 145.78 .13"/><polygon class="cls-4" points="87.19 182.11 155.46 153.06 188.73 111.35 87.19 182.11"/><polygon class="cls-2" points=".15 106.75 34.23 7.08 57.55 63.96 .15 106.75"/><polygon class="cls-1" points="13.99 96.43 9.23 110.36 87.19 182.11 .15 106.75 13.99 96.43"/><polygon class="cls-1" points="39.85 20.8 42.25 13.78 145.78 .13 34.23 7.08 39.85 20.8"/><line class="cls-1" x1="57.55" y1="63.96" x2="64.84" y2="68.9"/></svg>