<?xml version="1.0" encoding="UTF-8"?><svg id="Layer_1" xmlns="http://www.w3.org/2000/svg" viewBox="0 0 193.44 193.51"><defs><style>.cls-1{fill:#2b57a7;}</style></defs><g><path class="cls-1" d="M103.67,44.97c1.43,.38,2.24,2.06,2.81,4.09,2.77,9.88-.81,22.83-.81,22.83-1.8,6.49-4.57,15.05-8.93,24.89,20.87-28.31,64.79-87.86,62.62-84.92-2.73,3.71-9.26,5.6-11.74,6.3-4.65,1.3-23.5,4.26-23.5,4.26-5.95,.17-20.8,3.26-25.9,12.5-4.51,8.17-.89,20.19-.64,20.18,.04,0,.02-.31,.11-1.24,.3-2.86,.67-6.28,2.94-7.99,.31-.24,1.67-1.26,3.04-.89Z"/><path class="cls-1" d="M185.74,52.11c-1.43-.38-2.24-2.06-2.81-4.09-2.77-9.88,.81-22.83,.81-22.83,1.8-6.49,4.57-15.05,8.93-24.89-20.87,28.31-64.79,87.86-62.62,84.92,2.73-3.71,9.26-5.6,11.74-6.3,4.65-1.3,23.5-4.26,23.5-4.26,5.95-.17,20.8-3.26,25.9-12.5,4.51-8.17,.89-20.19,.64-20.18-.04,0-.02,.31-.11,1.24-.3,2.86-.67,6.28-2.94,7.99-.31,.24-1.67,1.26-3.04,.89Z"/></g><g><path class="cls-1" d="M7.7,141.43c1.43,.38,2.24,2.06,2.81,4.09,2.77,9.88-.81,22.83-.81,22.83-1.8,6.49-4.57,15.05-8.93,24.89,20.87-28.31,64.79-87.86,62.62-84.92-2.73,3.71-9.26,5.6-11.74,6.3-4.65,1.3-23.5,4.26-23.5,4.26-5.95,.17-20.8,3.26-25.9,12.5-4.51,8.17-.89,20.19-.64,20.18,.04,0,.02-.31,.11-1.24,.3-2.86,.67-6.28,2.94-7.99,.31-.24,1.67-1.26,3.04-.89Z"/><path class="cls-1" d="M89.8,148.57c-1.43-.38-2.24-2.06-2.81-4.09-2.77-9.88,.81-22.83,.81-22.83,1.8-6.49,4.57-15.05,8.93-24.89-20.87,28.31-64.79,87.86-62.62,84.92,2.73-3.71,9.26-5.6,11.74-6.3,4.65-1.3,23.5-4.26,23.5-4.26,5.95-.17,20.8-3.26,25.9-12.5,4.51-8.17,.89-20.19,.64-20.18-.04,0-.02,.31-.11,1.24-.3,2.86-.67,6.28-2.94,7.99-.31,.24-1.67,1.26-3.04,.89Z"/></g><g><path class="cls-1" d="M141.39,185.81c.38-1.43,2.06-2.24,4.09-2.81,9.88-2.77,22.83,.81,22.83,.81,6.49,1.8,15.05,4.57,24.89,8.93-28.31-20.87-87.86-64.79-84.92-62.62,3.71,2.73,5.6,9.26,6.3,11.74,1.3,4.65,4.26,23.5,4.26,23.5,.17,5.95,3.26,20.8,12.5,25.9,8.17,4.51,20.19,.89,20.18,.64,0-.04-.31-.02-1.24-.11-2.86-.3-6.28-.67-7.99-2.94-.24-.31-1.26-1.67-.89-3.04Z"/><path class="cls-1" d="M148.53,103.71c-.38,1.43-2.06,2.24-4.09,2.81-9.88,2.77-22.83-.81-22.83-.81-6.49-1.8-15.05-4.57-24.89-8.93,28.31,20.87,87.86,64.79,84.92,62.62-3.71-2.73-5.6-9.26-6.3-11.74-1.3-4.65-4.26-23.5-4.26-23.5-.17-5.95-3.26-20.8-12.5-25.9-8.17-4.51-20.19-.89-20.18-.64,0,.04,.31,.02,1.24,.11,2.86,.3,6.28,.67,7.99,2.94,.24,.31,1.26,1.67,.89,3.04Z"/></g><g><path class="cls-1" d="M44.93,89.8c.38-1.43,2.06-2.24,4.09-2.81,9.88-2.77,22.83,.81,22.83,.81,6.49,1.8,15.05,4.57,24.89,8.93C68.42,75.86,8.87,31.94,11.81,34.11c3.71,2.73,5.6,9.26,6.3,11.74,1.3,4.65,4.26,23.5,4.26,23.5,.17,5.95,3.26,20.8,12.5,25.9,8.17,4.51,20.19,.89,20.18,.64,0-.04-.31-.02-1.24-.11-2.86-.3-6.28-.67-7.99-2.94-.24-.31-1.26-1.67-.89-3.04Z"/><path class="cls-1" d="M52.07,7.7c-.38,1.43-2.06,2.24-4.09,2.81-9.88,2.77-22.83-.81-22.83-.81C18.67,7.9,10.1,5.13,.27,.77,28.58,21.64,88.14,65.56,85.19,63.39c-3.71-2.73-5.6-9.26-6.3-11.74-1.3-4.65-4.26-23.5-4.26-23.5-.17-5.95-3.26-20.8-12.5-25.9-8.17-4.51-20.19-.89-20.18-.64,0,.04,.31,.02,1.24,.11,2.86,.3,6.28,.67,7.99,2.94,.24,.31,1.26,1.67,.89,3.04Z"/></g></svg>